<?xml version="1.0" standalone="no"?><!DOCTYPE svg PUBLIC "-//W3C//DTD SVG 1.1//EN" "http://www.w3.org/Graphics/SVG/1.1/DTD/svg11.dtd"><svg t="1678181217982" class="icon" viewBox="0 0 1024 1024" version="1.1" xmlns="http://www.w3.org/2000/svg" p-id="5214" xmlns:xlink="http://www.w3.org/1999/xlink" width="48" height="48"><path d="M512 0A512 512 0 1 1 0 512 512 512 0 0 1 512 0z" fill="#FFFFFF" p-id="5215"></path><path d="M483.220211 878.699789l5.748771-5.730807 31.097264 31.133193 31.133193-31.133193 5.712842 5.730807-36.846035 36.846036z m323.763649-163.175298c109.585965-109.585965 98.429754-321.57193-23.65979-449.841403-0.179649-0.970105 14.587509-13.491649 14.461755-13.976702 118.047439 121.388912 140.988632 314.062596 58.080561 439.763088l15.665403 8.982456-77.931789 28.366596z m-655.054597-15.000702l15.665404-8.982456c-82.90807-125.754386-59.966877-318.374175 58.080561-439.763087-0.107789 0.485053 14.641404 13.006596 14.479719 13.976701-122.161404 128.251509-133.317614 340.201544-23.659789 449.841404l13.365895 13.365895zM520.066246 111.939368l-31.097264 31.115228-5.748771-5.730807 36.846035-36.846035L556.912281 137.323789l-5.712842 5.730807z" fill="#999999" p-id="5216"></path><path d="M512 808.421053a296.421053 296.421053 0 1 1 209.596632-86.824421A294.498807 294.498807 0 0 1 512 808.421053z m0-574.877193A278.45614 278.45614 0 1 0 790.45614 512 278.779509 278.779509 0 0 0 512 233.54386z" fill="#EBEBEB" p-id="5217"></path><path d="M609.477614 510.670596h-175.517193L521.683088 251.508772z" fill="#FF4D4F" p-id="5218"></path><path d="M433.960421 510.670596h175.517193L521.701053 769.832421z" fill="#D1D1D1" p-id="5219"></path><path d="M433.960421 510.670596l87.740632 259.14386V510.670596z m87.722667 0V251.508772l-87.722667 259.161824z" fill="#FFFFFF" fill-opacity="0.3" p-id="5220"></path><path d="M500.161123 532.210526a30.540351 30.540351 0 1 0 0-43.115789 30.540351 30.540351 0 0 0-0.053895 43.151719z" fill="#FFFFFF" p-id="5221"></path></svg>