<?xml version="1.0" standalone="no"?><!DOCTYPE svg PUBLIC "-//W3C//DTD SVG 1.1//EN" "http://www.w3.org/Graphics/SVG/1.1/DTD/svg11.dtd"><svg t="1718854356678" class="icon" viewBox="0 0 1024 1024" version="1.1" xmlns="http://www.w3.org/2000/svg" p-id="1702" xmlns:xlink="http://www.w3.org/1999/xlink" width="64" height="64"><path d="M480 64C214.848 64 0 278.848 0 544S214.848 1024 480 1024 960 809.152 960 544 745.152 64 480 64zM893.696 512l-126.784 0c-5.504-138.56-45.952-260.992-107.136-342.72C790.144 231.936 881.984 360.64 893.696 512zM702.4 512 512 512 512 132.736C614.848 160.128 694.336 317.312 702.4 512zM448 132.736 448 512 257.6 512C265.664 317.312 345.152 160.128 448 132.736zM300.288 169.28C239.04 251.008 198.656 373.44 193.152 512L66.304 512C78.016 360.64 169.856 231.936 300.288 169.28zM66.304 576l126.784 0c5.504 138.56 45.952 260.992 107.136 342.72C169.856 856.064 78.016 727.36 66.304 576zM257.6 576 448 576l0 379.264C345.152 927.872 265.664 770.688 257.6 576zM512 955.264 512 576l190.4 0C694.336 770.688 614.848 927.872 512 955.264zM659.712 918.72c61.248-81.728 101.632-204.16 107.136-342.72l126.784 0C881.984 727.36 790.144 856.064 659.712 918.72z" p-id="1703" fill="#ffffff"></path></svg>