<?xml version="1.0" standalone="no"?><!DOCTYPE svg PUBLIC "-//W3C//DTD SVG 1.1//EN" "http://www.w3.org/Graphics/SVG/1.1/DTD/svg11.dtd"><svg t="1718854429285" class="icon" viewBox="0 0 1024 1024" version="1.1" xmlns="http://www.w3.org/2000/svg" p-id="3881" xmlns:xlink="http://www.w3.org/1999/xlink" width="64" height="64"><path d="M1012.646039 459.30735 535.153 8.876259c-10.824779-11.426156-28.264701-12.027532-39.690857-0.601377L12.556714 458.104597c-7.216519 6.013766-12.027532 16.237169-12.027532 27.663325 0 19.244052 13.831662 34.278468 30.670208 34.278468l108.849169 0 0 354.812208c0 40.89361 15.034416 78.178961 39.089481 105.240909 24.055065 27.061948 57.130779 43.900494 93.814753 43.900494l312.114468 0c30.670208 0 58.934909-14.433039 79.381714-36.683974 20.446805-22.852312 33.075714-54.123896 33.075714-89.00374l0-290.464909c0-30.068831-10.824779-57.130779-28.264701-76.976208-17.439922-19.845429-41.494987-31.872961-68.556935-31.872961l-108.247792 0-66.151429 0-6.615143 0c-19.244052 0-34.879844 15.635792-34.879844 34.879844s15.635792 34.879844 34.879844 34.879844l73.367948 0c2.405506 0 4.811013-0.601377 7.216519-0.601377l100.429896 0c9.622026 0 18.642675 4.811013 25.257818 12.027532 6.615143 7.216519 10.223403 17.439922 10.223403 28.264701l0 290.464909c0 15.635792-6.013766 30.068831-15.034416 40.292234-9.020649 10.223403-22.250935 16.838545-36.082597 16.838545L389.619857 956.044441l0-164.777195L389.619857 704.067636l0-59.536286 0-39.089481c0-16.838545-13.831662-30.670208-30.670208-30.670208l0 0c-16.838545 0-30.670208 13.831662-30.670208 30.670208l0 17.439922L328.279441 704.067636l0 250.774052-55.928026 0c-19.845429 0-37.285351-9.020649-50.515636-23.453688-12.628909-14.433039-21.048182-34.879844-21.048182-56.529403L200.787597 485.166545c0-19.244052-13.831662-34.278468-30.670208-34.278468l-54.725273 0 398.712702-371.650754L908.607883 450.888077l-55.326649 0c-16.838545 0-30.670208 15.635792-30.670208 34.278468l0 446.221455c0 6.013766-2.405506 12.027532-6.013766 16.237169-3.60826 4.209636-9.020649 6.615143-14.433039 6.615143l-7.817896 0c-16.838545 0-30.670208 15.635792-30.670208 34.278468 0 19.244052 13.831662 34.278468 30.670208 34.278468l7.817896 0c22.250935 0 42.69774-10.223403 57.732156-27.061948 15.034416-16.838545 24.055065-39.690857 24.055065-64.948675L883.951442 520.046389 992.800611 520.046389l0 0c9.020649 0 17.439922-4.209636 23.453688-12.027532C1027.079078 492.984441 1025.274949 471.334883 1012.646039 459.30735z" p-id="3882" fill="#ffffff"></path></svg>