<?xml version="1.0" standalone="no"?><!DOCTYPE svg PUBLIC "-//W3C//DTD SVG 1.1//EN" "http://www.w3.org/Graphics/SVG/1.1/DTD/svg11.dtd"><svg t="1718854602688" class="icon" viewBox="0 0 1024 1024" version="1.1" xmlns="http://www.w3.org/2000/svg" p-id="11295" xmlns:xlink="http://www.w3.org/1999/xlink" width="64" height="64"><path d="M942.933333 311.466667l-384-192c-25.6-17.066667-55.466667-17.066667-81.066666 0l-384 192c0 4.266667-4.266667 8.533333-8.533334 8.533333-4.266667 17.066667 0 34.133333 12.8 38.4L234.666667 426.666667l-115.2 59.733333c-12.8 8.533333-21.333333 21.333333-21.333334 34.133333 0 12.8 8.533333 29.866667 21.333334 34.133334l98.133333 51.2-98.133333 51.2c-12.8 8.533333-21.333333 21.333333-21.333334 34.133333 0 12.8 8.533333 29.866667 21.333334 34.133333l358.4 179.2c12.8 8.533333 25.6 12.8 38.4 12.8 12.8 0 29.866667-4.266667 42.666666-12.8l358.4-179.2c12.8-8.533333 21.333333-21.333333 21.333334-34.133333 0-12.8-8.533333-29.866667-21.333334-34.133333l-98.133333-51.2 98.133333-51.2c12.8-8.533333 21.333333-21.333333 21.333334-34.133334 0-12.8-8.533333-29.866667-21.333334-34.133333L806.4 426.666667l136.533333-68.266667c4.266667-4.266667 8.533333-4.266667 8.533334-8.533333 4.266667-17.066667 0-34.133333-8.533334-38.4z m-81.066666 379.733333l-328.533334 166.4c-8.533333 4.266667-17.066667 4.266667-25.6 0l-328.533333-166.4 106.666667-55.466667 196.266666 98.133334c12.8 8.533333 25.6 12.8 38.4 12.8 12.8 0 29.866667-4.266667 42.666667-12.8l196.266667-98.133334 102.4 55.466667z m0-170.666667l-106.666667 55.466667-64 29.866667-162.133333 81.066666c-8.533333 4.266667-17.066667 4.266667-25.6 0L341.333333 605.866667l-64-29.866667L170.666667 520.533333l128-64 183.466666 93.866667c25.6 17.066667 55.466667 17.066667 81.066667 0l183.466667-93.866667 115.2 64z" p-id="11296" fill="#ffffff"></path></svg>